Accidenz Grotesk-medium.ufo
<glyph name="one" format="2">
	<advance width="380"/>
	<unicode hex="0031"/>
	<outline>
		<contour>
			<point x="322" y="670" type="line"/>
			<point x="234" y="670" type="line"/>
			<point x="218" y="593"/>
			<point x="208" y="555"/>
			<point x="66" y="555" type="curve"/>
			<point x="42" y="555" type="line"/>
			<point x="42" y="472" type="line"/>
			<point x="201" y="472" type="line"/>
			<point x="201" y="0" type="line"/>
			<point x="322" y="0" type="line"/>
		</contour>
	</outline>
</glyph>
<glyph name="two" format="2">
	<advance width="548"/>
	<unicode hex="0032"/>
	<outline>
		<contour>
			<point x="21" y="94" type="line"/>
			<point x="21" y="0" type="line"/>
			<point x="510" y="0" type="line"/>
			<point x="510" y="94" type="line"/>
		</contour>
		<contour>
			<point x="110" y="57" type="line"/>
			<point x="249" y="146" type="line"/>
			<point x="430" y="261"/>
			<point x="499" y="361"/>
			<point x="499" y="482" type="curve"/>
			<point x="499" y="598"/>
			<point x="407" y="682"/>
			<point x="272" y="682" type="curve"/>
			<point x="139" y="682"/>
			<point x="44" y="596"/>
			<point x="24" y="458" type="curve"/>
			<point x="145" y="405" type="line"/>
			<point x="146" y="531"/>
			<point x="192" y="587"/>
			<point x="271" y="587" type="curve"/>
			<point x="337" y="587"/>
			<point x="376" y="543"/>
			<point x="376" y="465" type="curve"/>
			<point x="376" y="378"/>
			<point x="345" y="318"/>
			<point x="136" y="174" type="curve"/>
			<point x="21" y="96" type="line"/>
			<point x="21" y="57" type="line"/>
		</contour>
	</outline>
</glyph>
<glyph name="three" format="2">
	<advance width="543"/>
	<unicode hex="0033"/>
	<outline>
		<contour>
			<point x="272" y="-12" type="curve"/>
			<point x="272" y="-12" type="line"/>
			<point x="406" y="-12"/>
			<point x="504" y="84"/>
			<point x="504" y="194" type="curve"/>
			<point x="504" y="291"/>
			<point x="451" y="355"/>
			<point x="335" y="376" type="curve"/>
			<point x="336" y="342" type="line"/>
			<point x="437" y="361"/>
			<point x="487" y="418"/>
			<point x="487" y="500" type="curve"/>
			<point x="487" y="608"/>
			<point x="396" y="682"/>
			<point x="270" y="682" type="curve"/>
			<point x="156" y="682"/>
			<point x="60" y="616"/>
			<point x="29" y="508" type="curve"/>
			<point x="138" y="457" type="line"/>
			<point x="159" y="550"/>
			<point x="198" y="587"/>
			<point x="270" y="587" type="curve"/>
			<point x="331" y="587"/>
			<point x="370" y="548"/>
			<point x="370" y="489" type="curve"/>
			<point x="370" y="427"/>
			<point x="328" y="388"/>
			<point x="243" y="388" type="curve"/>
			<point x="225" y="388"/>
			<point x="218" y="389"/>
			<point x="196" y="392" type="curve"/>
			<point x="196" y="299" type="line"/>
			<point x="221" y="302"/>
			<point x="228" y="303"/>
			<point x="254" y="303" type="curve"/>
			<point x="338" y="303"/>
			<point x="381" y="258"/>
			<point x="381" y="193" type="curve"/>
			<point x="381" y="129"/>
			<point x="341" y="82"/>
			<point x="273" y="82" type="curve"/>
			<point x="190" y="82"/>
			<point x="140" y="130"/>
			<point x="131" y="232" type="curve"/>
			<point x="17" y="175" type="line"/>
			<point x="43" y="55"/>
			<point x="134" y="-12"/>
		</contour>
	</outline>
</glyph>
<glyph name="four" format="2">
	<advance width="576"/>
	<unicode hex="0034"/>
	<outline>
		<contour>
			<point x="452" y="0" type="line"/>
			<point x="452" y="670" type="line"/>
			<point x="331" y="670" type="line"/>
			<point x="331" y="0" type="line"/>
		</contour>
		<contour>
			<point x="10" y="268" type="line"/>
			<point x="10" y="173" type="line"/>
			<point x="559" y="173" type="line"/>
			<point x="559" y="268" type="line"/>
		</contour>
		<contour>
			<point x="10" y="192" type="line"/>
			<point x="55" y="192" type="line"/>
			<point x="430" y="670" type="line"/>
			<point x="311" y="670" type="line"/>
			<point x="10" y="286" type="line"/>
		</contour>
	</outline>
</glyph>
<glyph name="question" format="2">
	<advance width="512"/>
	<unicode hex="003F"/>
	<outline>
		<contour>
			<point x="325" y="111" type="line"/>
			<point x="190" y="111" type="line"/>
			<point x="190" y="-11" type="line"/>
			<point x="325" y="-11" type="line"/>
		</contour>
		<contour>
			<point x="489" y="504" type="curve"/>
			<point x="489" y="504" type="line"/>
			<point x="489" y="621"/>
			<point x="400" y="700"/>
			<point x="266" y="700" type="curve"/>
			<point x="141" y="700"/>
			<point x="50" y="628"/>
			<point x="23" y="525" type="curve"/>
			<point x="141" y="471" type="line"/>
			<point x="151" y="557"/>
			<point x="194" y="601"/>
			<point x="264" y="601" type="curve"/>
			<point x="325" y="601"/>
			<point x="364" y="565"/>
			<point x="364" y="502" type="curve"/>
			<point x="364" y="437"/>
			<point x="325" y="405"/>
			<point x="242" y="395" type="curve"/>
			<point x="201" y="390" type="line"/>
			<point x="207" y="155" type="line"/>
			<point x="308" y="155" type="line"/>
			<point x="316" y="318" type="line"/>
			<point x="426" y="338"/>
			<point x="489" y="407"/>
		</contour>
	</outline>
</glyph>
<glyph name="E" format="2">
	<advance width="547"/>
	<unicode hex="0045"/>
	<outline>
		<contour>
			<point x="529" y="95" type="line"/>
			<point x="124" y="95" type="line"/>
			<point x="124" y="0" type="line"/>
			<point x="529" y="0" type="line"/>
		</contour>
		<contour>
			<point x="461" y="413" type="line"/>
			<point x="124" y="413" type="line"/>
			<point x="124" y="319" type="line"/>
			<point x="461" y="319" type="line"/>
		</contour>
		<contour>
			<point x="520" y="670" type="line"/>
			<point x="124" y="670" type="line"/>
			<point x="124" y="575" type="line"/>
			<point x="520" y="575" type="line"/>
		</contour>
		<contour>
			<point x="65" y="0" type="line"/>
			<point x="186" y="0" type="line"/>
			<point x="186" y="670" type="line"/>
			<point x="65" y="670" type="line"/>
		</contour>
	</outline>
</glyph>
<glyph name="N" format="2">
	<advance width="654"/>
	<unicode hex="004E"/>
	<outline>
		<contour>
			<point x="65" y="0" type="line"/>
			<point x="185" y="0" type="line"/>
			<point x="185" y="670" type="line"/>
			<point x="65" y="670" type="line"/>
		</contour>
		<contour>
			<point x="589" y="670" type="line"/>
			<point x="469" y="670" type="line"/>
			<point x="469" y="0" type="line"/>
			<point x="589" y="0" type="line"/>
		</contour>
		<contour>
			<point x="417" y="0" type="line"/>
			<point x="536" y="0" type="line"/>
			<point x="239" y="670" type="line"/>
			<point x="117" y="670" type="line"/>
		</contour>
	</outline>
</glyph>
<glyph name="S" format="2">
	<advance width="583"/>
	<unicode hex="0053"/>
	<outline>
		<contour>
			<point x="371" y="386" type="curve"/>
			<point x="371" y="386" type="line"/>
			<point x="263" y="408" type="line" smooth="yes"/>
			<point x="197" y="421"/>
			<point x="172" y="449"/>
			<point x="172" y="501" type="curve"/>
			<point x="172" y="554"/>
			<point x="216" y="590"/>
			<point x="286" y="590" type="curve"/>
			<point x="370" y="590"/>
			<point x="418" y="546"/>
			<point x="440" y="449" type="curve"/>
			<point x="554" y="511" type="line"/>
			<point x="510" y="628"/>
			<point x="426" y="684"/>
			<point x="293" y="684" type="curve"/>
			<point x="150" y="684"/>
			<point x="50" y="604"/>
			<point x="50" y="488" type="curve"/>
			<point x="50" y="400"/>
			<point x="113" y="330"/>
			<point x="233" y="305" type="curve"/>
			<point x="339" y="283" type="line" smooth="yes"/>
			<point x="407" y="270"/>
			<point x="432" y="239"/>
			<point x="432" y="180" type="curve"/>
			<point x="432" y="119"/>
			<point x="387" y="81"/>
			<point x="309" y="81" type="curve"/>
			<point x="220" y="81"/>
			<point x="172" y="125"/>
			<point x="141" y="241" type="curve"/>
			<point x="28" y="173" type="line"/>
			<point x="67" y="52"/>
			<point x="161" y="-14"/>
			<point x="306" y="-14" type="curve"/>
			<point x="452" y="-14"/>
			<point x="554" y="73"/>
			<point x="554" y="198" type="curve"/>
			<point x="554" y="299"/>
			<point x="494" y="362"/>
		</contour>
	</outline>
</glyph>
<glyph name="V" format="2">
	<advance width="588"/>
	<unicode hex="0056"/>
	<outline>
		<contour>
			<point x="467" y="670" type="line"/>
			<point x="255" y="16" type="line"/>
			<point x="333" y="16" type="line"/>
			<point x="120" y="670" type="line"/>
			<point x="-9" y="670" type="line"/>
			<point x="216" y="0" type="line"/>
			<point x="373" y="0" type="line"/>
			<point x="597" y="670" type="line"/>
		</contour>
	</outline>
</glyph>
<glyph name="X" format="2">
	<advance width="567"/>
	<unicode hex="0058"/>
	<outline>
		<contour>
			<point x="-9" y="0" type="line"/>
			<point x="121" y="0" type="line"/>
			<point x="344" y="370" type="line"/>
			<point x="223" y="370" type="line"/>
		</contour>
		<contour>
			<point x="445" y="0" type="line"/>
			<point x="575" y="0" type="line"/>
			<point x="328" y="391" type="line"/>
			<point x="213" y="391" type="line"/>
		</contour>
		<contour>
			<point x="205" y="316" type="line"/>
			<point x="322" y="316" type="line"/>
			<point x="543" y="670" type="line"/>
			<point x="413" y="670" type="line"/>
		</contour>
		<contour>
			<point x="24" y="670" type="line"/>
			<point x="230" y="341" type="line"/>
			<point x="346" y="341" type="line"/>
			<point x="154" y="670" type="line"/>
		</contour>
	</outline>
</glyph>
<glyph name="b" format="2">
	<advance width="589"/>
	<unicode hex="0062"/>
	<outline>
		<contour>
			<point x="58" y="706" type="line"/>
			<point x="58" y="0" type="line"/>
			<point x="165" y="0" type="line"/>
			<point x="165" y="63" type="line"/>
			<point x="173" y="63" type="line"/>
			<point x="201" y="16"/>
			<point x="247" y="-12"/>
			<point x="312" y="-12" type="curve"/>
			<point x="454" y="-12"/>
			<point x="547" y="90"/>
			<point x="547" y="260" type="curve"/>
			<point x="547" y="428"/>
			<point x="459" y="530"/>
			<point x="334" y="530" type="curve"/>
			<point x="269" y="530"/>
			<point x="220" y="503"/>
			<point x="186" y="456" type="curve"/>
			<point x="180" y="456" type="line"/>
			<point x="182" y="529" type="line"/>
			<point x="183" y="706" type="line"/>
		</contour>
		<contour>
			<point x="174" y="261" type="curve"/>
			<point x="174" y="261" type="line"/>
			<point x="174" y="375"/>
			<point x="222" y="436"/>
			<point x="299" y="436" type="curve"/>
			<point x="377" y="436"/>
			<point x="424" y="366"/>
			<point x="424" y="253" type="curve"/>
			<point x="424" y="145"/>
			<point x="381" y="81"/>
			<point x="301" y="81" type="curve"/>
			<point x="226" y="81"/>
			<point x="174" y="143"/>
		</contour>
	</outline>
</glyph>
<glyph name="e" format="2">
	<advance width="546"/>
	<unicode hex="0065"/>
	<anchor x="282" y="518" name="top"/>
	<outline>
		<contour>
			<point x="36" y="252" type="curve"/>
			<point x="36" y="252" type="line"/>
			<point x="36" y="88"/>
			<point x="129" y="-12"/>
			<point x="285" y="-12" type="curve"/>
			<point x="400" y="-12"/>
			<point x="479" y="45"/>
			<point x="516" y="154" type="curve"/>
			<point x="407" y="178" type="line"/>
			<point x="381" y="108"/>
			<point x="346" y="81"/>
			<point x="289" y="81" type="curve"/>
			<point x="201" y="81"/>
			<point x="148" y="146"/>
			<point x="156" y="296" type="curve"/>
			<point x="99" y="237" type="line"/>
			<point x="513" y="237" type="line"/>
			<point x="513" y="257" type="line"/>
			<point x="508" y="430"/>
			<point x="427" y="530"/>
			<point x="282" y="530" type="curve"/>
			<point x="134" y="530"/>
			<point x="36" y="416"/>
		</contour>
		<contour>
			<point x="96" y="318" type="line"/>
			<point x="148" y="268" type="line"/>
			<point x="149" y="373"/>
			<point x="200" y="437"/>
			<point x="273" y="437" type="curve"/>
			<point x="336" y="437"/>
			<point x="375" y="398"/>
			<point x="389" y="318" type="curve"/>
		</contour>
	</outline>
</glyph>
<glyph name="f" format="2">
	<advance width="373"/>
	<unicode hex="0066"/>
	<outline>
		<contour>
			<point x="6" y="518" type="line"/>
			<point x="6" y="429" type="line"/>
			<point x="339" y="429" type="line"/>
			<point x="339" y="518" type="line"/>
		</contour>
		<contour>
			<point x="95" y="562" type="curve"/>
			<point x="95" y="0" type="line"/>
			<point x="222" y="0" type="line"/>
			<point x="222" y="571" type="line" smooth="yes"/>
			<point x="222" y="604"/>
			<point x="239" y="624"/>
			<point x="289" y="624" type="curve"/>
			<point x="310" y="624"/>
			<point x="322" y="621"/>
			<point x="349" y="617" type="curve"/>
			<point x="349" y="706" type="line"/>
			<point x="322" y="713"/>
			<point x="285" y="716"/>
			<point x="256" y="716" type="curve"/>
			<point x="149" y="716"/>
			<point x="95" y="666"/>
		</contour>
	</outline>
</glyph>
<glyph name="h" format="2">
	<advance width="560"/>
	<unicode hex="0068"/>
	<outline>
		<contour>
			<point x="58" y="706" type="line"/>
			<point x="58" y="0" type="line"/>
			<point x="180" y="0" type="line"/>
			<point x="180" y="284" type="line" smooth="yes"/>
			<point x="180" y="387"/>
			<point x="223" y="437"/>
			<point x="288" y="437" type="curve"/>
			<point x="345" y="437"/>
			<point x="378" y="404"/>
			<point x="378" y="306" type="curve"/>
			<point x="378" y="0" type="line"/>
			<point x="503" y="0" type="line"/>
			<point x="503" y="342" type="line" smooth="yes"/>
			<point x="503" y="474"/>
			<point x="436" y="530"/>
			<point x="327" y="530" type="curve"/>
			<point x="264" y="530"/>
			<point x="211" y="504"/>
			<point x="181" y="444" type="curve"/>
			<point x="177" y="444" type="line"/>
			<point x="180" y="530" type="line"/>
			<point x="180" y="706" type="line"/>
		</contour>
	</outline>
</glyph>
<glyph name="j" format="2">
	<advance width="250"/>
	<unicode hex="006A"/>
	<anchor x="126" y="518" name="top"/>
	<outline>
		<contour>
			<point x="-37" y="-88" type="curve"/>
			<point x="-53" y="-184" type="line"/>
			<point x="-35" y="-193"/>
			<point x="-4" y="-199"/>
			<point x="30" y="-199" type="curve"/>
			<point x="127" y="-199"/>
			<point x="190" y="-146"/>
			<point x="190" y="-35" type="curve"/>
			<point x="190" y="518" type="line"/>
			<point x="64" y="518" type="line"/>
			<point x="64" y="-48" type="line" smooth="yes"/>
			<point x="64" y="-91"/>
			<point x="50" y="-104"/>
			<point x="24" y="-104" type="curve"/>
			<point x="2" y="-104"/>
			<point x="-12" y="-100"/>
		</contour>
		<component base="dotaccent" xOffset="34"/>
	</outline>
</glyph>
<glyph name="l" format="2">
	<advance width="242"/>
	<unicode hex="006C"/>
	<outline>
		<contour>
			<point x="58" y="0" type="line"/>
			<point x="184" y="0" type="line"/>
			<point x="184" y="706" type="line"/>
			<point x="58" y="706" type="line"/>
		</contour>
	</outline>
</glyph>
<glyph name="r" format="2">
	<advance width="357"/>
	<unicode hex="0072"/>
	<outline>
		<contour>
			<point x="58" y="518" type="line"/>
			<point x="58" y="0" type="line"/>
			<point x="182" y="0" type="line"/>
			<point x="182" y="448" type="line"/>
			<point x="173" y="448" type="line"/>
			<point x="173" y="518" type="line"/>
		</contour>
		<contour>
			<point x="346" y="419" type="curve"/>
			<point x="346" y="419" type="line"/>
			<point x="349" y="530" type="line"/>
			<point x="205" y="534"/>
			<point x="162" y="481"/>
			<point x="162" y="309" type="curve"/>
			<point x="182" y="322" type="line"/>
			<point x="181" y="398"/>
			<point x="248" y="438"/>
		</contour>
	</outline>
</glyph>
<glyph name="s" format="2">
	<advance width="512"/>
	<unicode hex="0073"/>
	<outline>
		<contour>
			<point x="265" y="-12" type="curve"/>
			<point x="265" y="-12" type="line"/>
			<point x="391" y="-12"/>
			<point x="475" y="54"/>
			<point x="475" y="152" type="curve"/>
			<point x="475" y="230"/>
			<point x="428" y="284"/>
			<point x="332" y="304" type="curve"/>
			<point x="230" y="325" type="line" smooth="yes"/>
			<point x="190" y="333"/>
			<point x="171" y="349"/>
			<point x="171" y="381" type="curve"/>
			<point x="171" y="413"/>
			<point x="200" y="438"/>
			<point x="256" y="438" type="curve"/>
			<point x="314" y="438"/>
			<point x="352" y="410"/>
			<point x="375" y="352" type="curve"/>
			<point x="480" y="399" type="line"/>
			<point x="455" y="476"/>
			<point x="376" y="530"/>
			<point x="260" y="530" type="curve"/>
			<point x="143" y="530"/>
			<point x="55" y="461"/>
			<point x="55" y="368" type="curve"/>
			<point x="55" y="296"/>
			<point x="102" y="249"/>
			<point x="194" y="229" type="curve"/>
			<point x="288" y="207" type="line" smooth="yes"/>
			<point x="338" y="197"/>
			<point x="357" y="171"/>
			<point x="357" y="143" type="curve"/>
			<point x="357" y="105"/>
			<point x="326" y="80"/>
			<point x="273" y="80" type="curve"/>
			<point x="202" y="80"/>
			<point x="168" y="107"/>
			<point x="141" y="172" type="curve"/>
			<point x="33" y="120" type="line"/>
			<point x="67" y="39"/>
			<point x="152" y="-12"/>
		</contour>
	</outline>
</glyph>
<glyph name="w" format="2">
	<advance width="757"/>
	<unicode hex="0077"/>
	<outline>
		<contour>
			<point x="2" y="518" type="line"/>
			<point x="154" y="0" type="line"/>
			<point x="299" y="0" type="line"/>
			<point x="428" y="518" type="line"/>
			<point x="330" y="518" type="line"/>
			<point x="203" y="16" type="line"/>
			<point x="260" y="16" type="line"/>
			<point x="131" y="518" type="line"/>
		</contour>
		<contour>
			<point x="333" y="518" type="line"/>
			<point x="465" y="0" type="line"/>
			<point x="611" y="0" type="line"/>
			<point x="756" y="518" type="line"/>
			<point x="635" y="518" type="line"/>
			<point x="511" y="16" type="line"/>
			<point x="565" y="16" type="line"/>
			<point x="436" y="518" type="line"/>
		</contour>
	</outline>
</glyph>
<glyph name="z" format="2">
	<advance width="479"/>
	<unicode hex="007A"/>
	<outline>
		<contour>
			<point x="39" y="518" type="line"/>
			<point x="39" y="426" type="line"/>
			<point x="368" y="426" type="line"/>
			<point x="415" y="443" type="line"/>
			<point x="457" y="518" type="line"/>
		</contour>
		<contour>
			<point x="21" y="79" type="line"/>
			<point x="21" y="0" type="line"/>
			<point x="141" y="72" type="line"/>
			<point x="196" y="123" type="line"/>
			<point x="457" y="443" type="line"/>
			<point x="457" y="518" type="line"/>
			<point x="335" y="448" type="line"/>
			<point x="276" y="395" type="line"/>
		</contour>
		<contour>
			<point x="458" y="0" type="line"/>
			<point x="458" y="92" type="line"/>
			<point x="111" y="92" type="line"/>
			<point x="64" y="75" type="line"/>
			<point x="21" y="0" type="line"/>
		</contour>
	</outline>
</glyph>
<glyph name="acute" format="2">
	<advance width="285"/>
	<unicode hex="00B4"/>
	<anchor x="82" y="518" name="_top"/>
	<outline>
		<contour>
			<point x="253" y="766" type="line"/>
			<point x="121" y="766" type="line"/>
			<point x="33" y="604" type="line"/>
			<point x="98" y="604" type="line"/>
		</contour>
	</outline>
</glyph>
<glyph name="breve" format="2">
	<advance width="343"/>
	<unicode hex="02D8"/>
	<outline>
		<contour>
			<point x="172" y="609" type="curve"/>
			<point x="172" y="609" type="line"/>
			<point x="172" y="677" type="line"/>
			<point x="117" y="677"/>
			<point x="86" y="711"/>
			<point x="86" y="766" type="curve"/>
			<point x="34" y="766" type="line"/>
			<point x="33" y="759"/>
			<point x="33" y="753"/>
			<point x="33" y="747" type="curve"/>
			<point x="33" y="641"/>
			<point x="113" y="609"/>
		</contour>
		<contour>
			<point x="172" y="677" type="curve"/>
			<point x="172" y="609" type="line"/>
			<point x="231" y="609"/>
			<point x="311" y="641"/>
			<point x="311" y="747" type="curve"/>
			<point x="311" y="753"/>
			<point x="311" y="759"/>
			<point x="310" y="766" type="curve"/>
			<point x="258" y="766" type="line"/>
			<point x="258" y="711"/>
			<point x="227" y="677"/>
		</contour>
	</outline>
</glyph>
<glyph name="bullet" format="2">
	<advance width="744"/>
	<unicode hex="2022"/>
	<outline>
		<contour>
			<point x="372" y="91" type="curve"/>
			<point x="372" y="91" type="line"/>
			<point x="469" y="91"/>
			<point x="549" y="168"/>
			<point x="549" y="262" type="curve"/>
			<point x="549" y="356"/>
			<point x="469" y="433"/>
			<point x="372" y="433" type="curve"/>
			<point x="275" y="433"/>
			<point x="195" y="356"/>
			<point x="195" y="262" type="curve"/>
			<point x="195" y="168"/>
			<point x="275" y="91"/>
		</contour>
	</outline>
</glyph>
<glyph name="comma.ss01" format="2">
	<advance width="265"/>
	<outline>
		<contour>
			<point x="117" y="6" type="line"/>
			<point x="117" y="-25" type="line"/>
			<point x="117" y="-62"/>
			<point x="92" y="-82"/>
			<point x="56" y="-74" type="curve"/>
			<point x="56" y="-148" type="line"/>
			<point x="171" y="-128"/>
			<point x="215" y="-68"/>
			<point x="208" y="41" type="curve"/>
		</contour>
		<contour>
			<point x="58" y="28" type="curve"/>
			<point x="58" y="28" type="line"/>
			<point x="58" y="-15"/>
			<point x="87" y="-42"/>
			<point x="132" y="-42" type="curve"/>
			<point x="178" y="-42"/>
			<point x="209" y="-15"/>
			<point x="209" y="23" type="curve"/>
			<point x="209" y="73"/>
			<point x="180" y="101"/>
			<point x="132" y="101" type="curve"/>
			<point x="86" y="101"/>
			<point x="58" y="73"/>
		</contour>
	</outline>
</glyph>
<glyph name="exclam.ss01" format="2">
	<advance width="287"/>
	<outline>
		<contour>
			<point x="218" y="426" type="curve"/>
			<point x="218" y="681" type="line"/>
			<point x="83" y="681" type="line"/>
			<point x="83" y="426" type="line"/>
			<point x="96" y="339"/>
			<point x="104" y="281"/>
			<point x="103" y="145" type="curve"/>
			<point x="198" y="145" type="line"/>
			<point x="197" y="281"/>
			<point x="205" y="339"/>
		</contour>
		<component base="period.ss01" xOffset="49"/>
	</outline>
</glyph>
